<svg width="480" height="549" viewBox="0 0 480 549" fill="none" xmlns="http://www.w3.org/2000/svg">
<g filter="url(#filter0_dd_494_858)">
<g filter="url(#filter1_d_494_858)">
<path d="M206.281 474.656L270.497 411.737" stroke="#1BFFE1" stroke-width="38.9189"/>
<g filter="url(#filter2_f_494_858)">
<path d="M247.023 412.728L268.08 433.784L231.184 470.68L210.127 449.624L247.023 412.728Z" fill="#3ADCFF"/>
</g>
<path d="M218.579 322.238L195.896 344.921C180.545 360.272 180.722 385.215 196.289 400.347L279.93 481.654C295.188 496.486 319.53 496.314 334.577 481.267L416.789 399.055C431.988 383.856 431.988 359.214 416.789 344.015L316.525 243.751" stroke="#1BFFE1" stroke-width="38.9189"/>
<path d="M218.602 322.22L272.439 268.382" stroke="url(#paint0_linear_494_858)" stroke-width="38.9189"/>
<path d="M218 322.602L272.439 268.382" stroke="#1BFFE1" stroke-width="38.9189"/>
<path d="M167.356 239.855L62.5511 344.66C47.3523 359.859 47.3523 384.501 62.5511 399.7L144.376 481.525C159.575 496.724 184.217 496.724 199.416 481.525L206.923 474.018" stroke="#1BFFE1" stroke-width="38.9189"/>
<g filter="url(#filter3_f_494_858)">
<path d="M290.609 241.771L314.578 217.802L339.685 242.909L315.716 266.877L290.609 241.771Z" fill="#26A196"/>
</g>
<g filter="url(#filter4_f_494_858)">
<path d="M166.602 215.193L190.57 239.162L165.081 264.651L141.112 240.682L166.602 215.193Z" fill="#26A196"/>
</g>
<g filter="url(#filter5_f_494_858)">
<path d="M248.156 271.078L272.229 295.151L235.08 332.3L211.007 308.227L248.156 271.078Z" fill="#26A196"/>
</g>
<path d="M148 179.602L176.609 150.685C199.101 127.952 210.346 116.585 223.32 112.386C234.728 108.693 247.021 108.76 258.388 112.577C271.315 116.917 282.437 128.405 304.68 151.381L331 178.569" stroke="url(#paint1_linear_494_858)" stroke-width="9.73"/>
<g filter="url(#filter6_d_494_858)">
<path d="M272.455 268.389L305.908 234.936C321.107 219.737 321.107 195.095 305.908 179.896L268.191 142.179C252.992 126.98 228.35 126.98 213.151 142.179L175.434 179.896C160.235 195.095 160.235 219.737 175.434 234.936L283.854 343.356C299.052 358.554 299.052 383.196 283.854 398.395L269.86 412.389" stroke="#1BFFE1" stroke-width="38.9189"/>
</g>
</g>
</g>
<defs>
<filter id="filter0_dd_494_858" x="-117.9" y="-36.198" width="715.8" height="928.7" filterUnits="userSpaceOnUse" color-interpolation-filters="sRGB">
<feFlood flood-opacity="0" result="BackgroundImageFix"/>
<feColorMatrix in="SourceAlpha" type="matrix" values="0 0 0 0 0 0 0 0 0 0 0 0 0 0 0 0 0 0 127 0" result="hardAlpha"/>
<feOffset dy="-1"/>
<feGaussianBlur stdDeviation="51.9"/>
<feComposite in2="hardAlpha" operator="out"/>
<feColorMatrix type="matrix" values="0 0 0 0 0 0 0 0 0 0 0 0 0 0 0 0 0 0 1 0"/>
<feBlend mode="normal" in2="BackgroundImageFix" result="effect1_dropShadow_494_858"/>
<feColorMatrix in="SourceAlpha" type="matrix" values="0 0 0 0 0 0 0 0 0 0 0 0 0 0 0 0 0 0 127 0" result="hardAlpha"/>
<feOffset dy="226"/>
<feGaussianBlur stdDeviation="58.95"/>
<feComposite in2="hardAlpha" operator="out"/>
<feColorMatrix type="matrix" values="0 0 0 0 0 0 0 0 0 0 0 0 0 0 0 0 0 0 1 0"/>
<feBlend mode="normal" in2="effect1_dropShadow_494_858" result="effect2_dropShadow_494_858"/>
<feBlend mode="normal" in="SourceGraphic" in2="effect2_dropShadow_494_858" result="shape"/>
</filter>
<filter id="filter1_d_494_858" x="27.6953" y="104.8" width="423.953" height="415.583" filterUnits="userSpaceOnUse" color-interpolation-filters="sRGB">
<feFlood flood-opacity="0" result="BackgroundImageFix"/>
<feColorMatrix in="SourceAlpha" type="matrix" values="0 0 0 0 0 0 0 0 0 0 0 0 0 0 0 0 0 0 127 0" result="hardAlpha"/>
<feOffset dy="4"/>
<feGaussianBlur stdDeviation="2"/>
<feComposite in2="hardAlpha" operator="out"/>
<feColorMatrix type="matrix" values="0 0 0 0 0 0 0 0 0 0 0 0 0 0 0 0 0 0 0.25 0"/>
<feBlend mode="normal" in2="BackgroundImageFix" result="effect1_dropShadow_494_858"/>
<feBlend mode="normal" in="SourceGraphic" in2="effect1_dropShadow_494_858" result="shape"/>
</filter>
<filter id="filter2_f_494_858" x="191.963" y="394.566" width="94.2775" height="94.2765" filterUnits="userSpaceOnUse" color-interpolation-filters="sRGB">
<feFlood flood-opacity="0" result="BackgroundImageFix"/>
<feBlend mode="normal" in="SourceGraphic" in2="BackgroundImageFix" result="shape"/>
<feGaussianBlur stdDeviation="9.08108" result="effect1_foregroundBlur_494_858"/>
</filter>
<filter id="filter3_f_494_858" x="272.447" y="199.64" width="85.4025" height="85.4" filterUnits="userSpaceOnUse" color-interpolation-filters="sRGB">
<feFlood flood-opacity="0" result="BackgroundImageFix"/>
<feBlend mode="normal" in="SourceGraphic" in2="BackgroundImageFix" result="shape"/>
<feGaussianBlur stdDeviation="9.08108" result="effect1_foregroundBlur_494_858"/>
</filter>
<filter id="filter4_f_494_858" x="122.947" y="197.031" width="85.7853" height="85.7828" filterUnits="userSpaceOnUse" color-interpolation-filters="sRGB">
<feFlood flood-opacity="0" result="BackgroundImageFix"/>
<feBlend mode="normal" in="SourceGraphic" in2="BackgroundImageFix" result="shape"/>
<feGaussianBlur stdDeviation="9.08108" result="effect1_foregroundBlur_494_858"/>
</filter>
<filter id="filter5_f_494_858" x="192.846" y="252.915" width="97.5431" height="97.547" filterUnits="userSpaceOnUse" color-interpolation-filters="sRGB">
<feFlood flood-opacity="0" result="BackgroundImageFix"/>
<feBlend mode="normal" in="SourceGraphic" in2="BackgroundImageFix" result="shape"/>
<feGaussianBlur stdDeviation="9.08108" result="effect1_foregroundBlur_494_858"/>
</filter>
<filter id="filter6_d_494_858" x="140.578" y="103.32" width="200.188" height="322.829" filterUnits="userSpaceOnUse" color-interpolation-filters="sRGB">
<feFlood flood-opacity="0" result="BackgroundImageFix"/>
<feColorMatrix in="SourceAlpha" type="matrix" values="0 0 0 0 0 0 0 0 0 0 0 0 0 0 0 0 0 0 127 0" result="hardAlpha"/>
<feOffset dy="-4"/>
<feGaussianBlur stdDeviation="2"/>
<feComposite in2="hardAlpha" operator="out"/>
<feColorMatrix type="matrix" values="0 0 0 0 0 0 0 0 0 0 0 0 0 0 0 0 0 0 0.25 0"/>
<feBlend mode="normal" in2="BackgroundImageFix" result="effect1_dropShadow_494_858"/>
<feBlend mode="normal" in="SourceGraphic" in2="effect1_dropShadow_494_858" result="shape"/>
</filter>
<linearGradient id="paint0_linear_494_858" x1="272.439" y1="268.382" x2="219.25" y2="321.571" gradientUnits="userSpaceOnUse">
<stop stop-color="#F6DA00"/>
<stop offset="1" stop-color="#CD9708"/>
</linearGradient>
<linearGradient id="paint1_linear_494_858" x1="238.5" y1="108.844" x2="239.567" y2="179.601" gradientUnits="userSpaceOnUse">
<stop stop-color="#3ADCFF"/>
<stop offset="0.704396" stop-color="#247A8D" stop-opacity="0"/>
</linearGradient>
</defs>
</svg>
