<svg width="231" height="116" viewBox="0 0 231 116" fill="none" xmlns="http://www.w3.org/2000/svg">
<g filter="url(#filter0_f_617_888)">
<path d="M184.042 49.3534C184.042 59.8188 186.957 72.881 137.398 68.3026C111.637 68.3026 90.7539 59.8188 90.7539 49.3534C90.7539 38.8881 93.6692 56.3237 140.313 31.3386C166.074 31.3386 184.042 30.4043 184.042 49.3534Z" fill="url(#paint0_linear_617_888)"/>
</g>
<g filter="url(#filter1_f_617_888)">
<path d="M184.042 49.3534C184.042 59.8188 186.957 72.881 137.398 68.3026C111.637 68.3026 90.7539 59.8188 90.7539 49.3534C90.7539 38.8881 93.6692 56.3237 140.313 31.3386C166.074 31.3386 184.042 30.4043 184.042 49.3534Z" fill="url(#paint1_linear_617_888)"/>
</g>
<g filter="url(#filter2_f_617_888)">
<path d="M184.042 49.3534C184.042 59.8188 186.957 72.881 137.398 68.3026C111.637 68.3026 90.7539 59.8188 90.7539 49.3534C90.7539 38.8881 93.6692 56.3237 140.313 31.3386C166.074 31.3386 184.042 30.4043 184.042 49.3534Z" fill="url(#paint2_linear_617_888)"/>
</g>
<rect x="13.1356" y="29.5169" width="172.729" height="56.1186" rx="28.0593" stroke="url(#paint3_linear_617_888)" stroke-width="0.728814"/>
<rect y="29.8813" width="184.966" height="56.2373" rx="28.1186" fill="#090920"/>
<rect x="0.728814" y="30.6102" width="183.508" height="54.7797" rx="27.3898" stroke="white" stroke-opacity="0.12" stroke-width="1.45763"/>
<defs>
<filter id="filter0_f_617_888" x="44.1098" y="-15.313" width="186.608" height="131.201" filterUnits="userSpaceOnUse" color-interpolation-filters="sRGB">
<feFlood flood-opacity="0" result="BackgroundImageFix"/>
<feBlend mode="normal" in="SourceGraphic" in2="BackgroundImageFix" result="shape"/>
<feGaussianBlur stdDeviation="23.322" result="effect1_foregroundBlur_617_888"/>
</filter>
<filter id="filter1_f_617_888" x="73.2624" y="13.8395" width="128.303" height="72.8956" filterUnits="userSpaceOnUse" color-interpolation-filters="sRGB">
<feFlood flood-opacity="0" result="BackgroundImageFix"/>
<feBlend mode="normal" in="SourceGraphic" in2="BackgroundImageFix" result="shape"/>
<feGaussianBlur stdDeviation="8.74576" result="effect1_foregroundBlur_617_888"/>
</filter>
<filter id="filter2_f_617_888" x="84.9234" y="25.5005" width="104.981" height="49.5736" filterUnits="userSpaceOnUse" color-interpolation-filters="sRGB">
<feFlood flood-opacity="0" result="BackgroundImageFix"/>
<feBlend mode="normal" in="SourceGraphic" in2="BackgroundImageFix" result="shape"/>
<feGaussianBlur stdDeviation="2.91525" result="effect1_foregroundBlur_617_888"/>
</filter>
<linearGradient id="paint0_linear_617_888" x1="175.296" y1="31.3386" x2="74.72" y2="59.7623" gradientUnits="userSpaceOnUse">
<stop stop-color="#3ADCFF"/>
<stop offset="1" stop-color="#3ADCFF" stop-opacity="0"/>
</linearGradient>
<linearGradient id="paint1_linear_617_888" x1="175.296" y1="31.3386" x2="74.72" y2="59.7623" gradientUnits="userSpaceOnUse">
<stop stop-color="#3ADCFF"/>
<stop offset="1" stop-color="#3ADCFF" stop-opacity="0"/>
</linearGradient>
<linearGradient id="paint2_linear_617_888" x1="175.296" y1="31.3386" x2="74.72" y2="59.7623" gradientUnits="userSpaceOnUse">
<stop stop-color="#3ADCFF"/>
<stop offset="1" stop-color="#3ADCFF" stop-opacity="0"/>
</linearGradient>
<linearGradient id="paint3_linear_617_888" x1="130.11" y1="29.8814" x2="99.5" y2="85.2712" gradientUnits="userSpaceOnUse">
<stop stop-color="#3ADCFF"/>
<stop offset="1" stop-color="#247A8D" stop-opacity="0"/>
</linearGradient>
</defs>
</svg>
