<svg width="162" height="57" viewBox="0 0 162 57" fill="none" xmlns="http://www.w3.org/2000/svg">
<g filter="url(#filter0_d_494_73)">
<path d="M48.3796 32.3784L41.0391 24.8865" stroke="#1BFFE1" stroke-width="4.54054"/>
<g filter="url(#filter1_f_494_73)">
<path d="M41.1484 27.625L43.605 25.1684L47.9095 29.473L45.453 31.9295L41.1484 27.625Z" fill="#3ADCFF"/>
</g>
<path d="M30.5864 30.9435L33.2327 33.5898C35.0237 35.3807 37.9337 35.3602 39.6991 33.544L49.1849 23.7859C50.9154 22.0058 50.8953 19.1659 49.1398 17.4104L39.5484 7.819C37.7753 6.04581 34.9003 6.0458 33.1271 7.819L21.4297 19.5165" stroke="#1BFFE1" stroke-width="4.54054"/>
<path d="M30.5858 30.9409L24.3047 24.6598" stroke="url(#paint0_linear_494_73)" stroke-width="4.54054"/>
<path d="M30.6304 31.0112L24.3047 24.66" stroke="#1BFFE1" stroke-width="4.54054"/>
<path d="M20.9766 36.9196L33.2038 49.1468C34.9769 50.92 37.8519 50.92 39.625 49.1468L49.1713 39.6005C50.9445 37.8273 50.9445 34.9524 49.1713 33.1792L48.2955 32.3034" stroke="#1BFFE1" stroke-width="4.54054"/>
<g filter="url(#filter2_f_494_73)">
<path d="M21.2031 22.54L18.4068 19.7437L21.3359 16.8145L24.1323 19.6109L21.2031 22.54Z" fill="#26A196"/>
</g>
<g filter="url(#filter3_f_494_73)">
<path d="M18.1016 37.0078L20.8979 34.2114L23.8717 37.1852L21.0753 39.9816L18.1016 37.0078Z" fill="#26A196"/>
</g>
<g filter="url(#filter4_f_494_73)">
<path d="M24.625 27.4932L27.4335 24.6846L31.7677 29.0188L28.9591 31.8273L24.625 27.4932Z" fill="#26A196"/>
</g>
<g filter="url(#filter5_d_494_73)">
<path d="M24.3101 24.6583L20.4073 20.7554C18.6341 18.9822 15.7592 18.9822 13.986 20.7554L9.58565 25.1557C7.81246 26.9289 7.81246 29.8038 9.58565 31.577L13.986 35.9773C15.7592 37.7505 18.6341 37.7505 20.4073 35.9773L33.0562 23.3284C34.8294 21.5552 37.7043 21.5552 39.4775 23.3284L41.1101 24.961" stroke="#1BFFE1" stroke-width="4.54054"/>
</g>
</g>
<path d="M63.85 11.3215C65.6632 11.3215 67.255 12.0067 68.6255 13.3772C69.1192 13.922 69.366 14.3306 69.366 14.603C69.366 14.6626 69.3703 14.7094 69.3788 14.7434C69.3788 15.0158 69.2554 15.2797 69.0085 15.5351C68.8723 15.6457 66.7613 17.1524 62.6753 20.0551C62.6753 20.0636 62.3306 20.3147 61.6411 20.8085C61.5389 20.9276 61.4879 21.0468 61.4879 21.166V21.2426C61.4879 21.4043 61.5772 21.5448 61.756 21.664C62.4455 22.013 63.0967 22.1875 63.7096 22.1875H63.965C64.9439 22.1875 65.8717 21.8214 66.7485 21.0894C67.2252 20.6042 67.5061 20.2552 67.5912 20.0424C67.7359 19.8125 67.8764 19.4933 68.0126 19.0847C68.0977 18.6676 68.2169 18.3782 68.3701 18.2165C68.6255 17.9866 68.8851 17.8717 69.149 17.8717C69.6597 17.8717 70.013 18.1143 70.2087 18.5995C70.2513 18.7017 70.2726 18.8166 70.2726 18.9443V18.9826C70.2641 19.3146 70.1066 19.8551 69.8002 20.6042C69.6214 21.0128 69.3277 21.4809 68.9191 22.0087C68.4935 22.4939 68.119 22.8514 67.7955 23.0813C67.2422 23.4813 66.7527 23.758 66.3271 23.9112C65.5099 24.2432 64.7268 24.4092 63.9777 24.4092H63.7734C62.454 24.4092 61.1857 23.9878 59.9684 23.1451C59.3811 22.6939 58.9001 22.2045 58.5256 21.6767C58.2447 21.2596 58.0234 20.8766 57.8616 20.5276C57.4871 19.5997 57.2998 18.7229 57.2998 17.8972C57.2998 16.331 57.8191 14.9052 58.8576 13.6198C59.3428 13.1091 59.696 12.7813 59.9173 12.6366C61.1261 11.7599 62.437 11.3215 63.85 11.3215ZM59.5215 17.8462C59.5215 18.442 59.5939 18.7953 59.7386 18.906C59.8492 19.0081 59.9854 19.0592 60.1472 19.0592C60.2749 19.0592 60.5132 18.9145 60.8622 18.6251C60.9048 18.608 62.62 17.3908 66.0079 14.9733C66.1356 14.8541 66.1994 14.7179 66.1994 14.5647V14.4881C66.1994 14.3348 66.1143 14.1986 65.9441 14.0795C65.2546 13.722 64.6034 13.5432 63.9905 13.5432H63.7351C62.7392 13.5432 61.7858 13.9305 60.875 14.7051C59.9727 15.6245 59.5215 16.6715 59.5215 17.8462ZM77.8954 11.3215C79.7085 11.3215 81.3003 12.0067 82.6708 13.3772C83.1645 13.922 83.4114 14.3306 83.4114 14.603C83.4114 14.6626 83.4156 14.7094 83.4241 14.7434C83.4241 15.0158 83.3007 15.2797 83.0539 15.5351C82.9177 15.6457 80.8066 17.1524 76.7207 20.0551C76.7207 20.0636 76.3759 20.3147 75.6864 20.8085C75.5843 20.9276 75.5332 21.0468 75.5332 21.166V21.2426C75.5332 21.4043 75.6226 21.5448 75.8013 21.664C76.4908 22.013 77.142 22.1875 77.7549 22.1875H78.0103C78.9892 22.1875 79.9171 21.8214 80.7938 21.0894C81.2705 20.6042 81.5514 20.2552 81.6365 20.0424C81.7813 19.8125 81.9217 19.4933 82.0579 19.0847C82.143 18.6676 82.2622 18.3782 82.4154 18.2165C82.6708 17.9866 82.9304 17.8717 83.1943 17.8717C83.705 17.8717 84.0583 18.1143 84.2541 18.5995C84.2967 18.7017 84.3179 18.8166 84.3179 18.9443V18.9826C84.3094 19.3146 84.1519 19.8551 83.8455 20.6042C83.6667 21.0128 83.3731 21.4809 82.9645 22.0087C82.5389 22.4939 82.1643 22.8514 81.8408 23.0813C81.2875 23.4813 80.7981 23.758 80.3725 23.9112C79.5553 24.2432 78.7721 24.4092 78.0231 24.4092H77.8188C76.4994 24.4092 75.231 23.9878 74.0138 23.1451C73.4264 22.6939 72.9455 22.2045 72.5709 21.6767C72.29 21.2596 72.0687 20.8766 71.907 20.5276C71.5324 19.5997 71.3451 18.7229 71.3451 17.8972C71.3451 16.331 71.8644 14.9052 72.9029 13.6198C73.3881 13.1091 73.7414 12.7813 73.9627 12.6366C75.1714 11.7599 76.4823 11.3215 77.8954 11.3215ZM73.5669 17.8462C73.5669 18.442 73.6392 18.7953 73.7839 18.906C73.8946 19.0081 74.0308 19.0592 74.1925 19.0592C74.3202 19.0592 74.5585 18.9145 74.9076 18.6251C74.9501 18.608 76.6653 17.3908 80.0533 14.9733C80.1809 14.8541 80.2448 14.7179 80.2448 14.5647V14.4881C80.2448 14.3348 80.1597 14.1986 79.9894 14.0795C79.2999 13.722 78.6487 13.5432 78.0358 13.5432H77.7805C76.7845 13.5432 75.8311 13.9305 74.9203 14.7051C74.018 15.6245 73.5669 16.6715 73.5669 17.8462Z" fill="white"/>
<path d="M72.2976 38.5533V34.7928C72.2976 32.8855 70.7514 31.3394 68.8441 31.3394C66.9368 31.3394 65.3906 32.8855 65.3906 34.7928V36.1963" stroke="url(#paint1_linear_494_73)" stroke-width="1.53488" stroke-linecap="round"/>
<path d="M59.0874 31.5782C59.513 31.5782 59.8322 31.808 60.045 32.2677C60.0791 32.4124 60.0961 32.5826 60.0961 32.7784V48.6879C60.0961 49.2498 59.8961 49.62 59.496 49.7988C59.4109 49.8414 59.2747 49.8712 59.0874 49.8882C58.6618 49.8882 58.3383 49.6584 58.117 49.1987C58.0829 49.0625 58.0659 48.8922 58.0659 48.6879V32.7784C58.0659 32.2166 58.2702 31.8506 58.6788 31.6803C58.7554 31.6292 58.8916 31.5952 59.0874 31.5782ZM69.0724 36.8005H69.2894C70.6344 36.8005 71.941 37.2601 73.2093 38.1795C73.7882 38.6647 74.1925 39.0818 74.4224 39.4308C75.2906 40.6225 75.7247 41.9292 75.7247 43.3507C75.7247 45.0702 75.0991 46.6024 73.8478 47.9474C73.1753 48.5858 72.5369 49.0284 71.9325 49.2753C71.0217 49.6839 70.1406 49.8882 69.2894 49.8882H69.0724C67.7104 49.8882 66.3995 49.4243 65.1397 48.4964C64.6715 48.1134 64.3054 47.7431 64.0416 47.3856C63.1052 46.1768 62.637 44.8276 62.637 43.3379C62.637 41.7206 63.1988 40.2607 64.3225 38.9584C64.9013 38.371 65.3184 38.0135 65.5738 37.8858C66.7144 37.1623 67.8806 36.8005 69.0724 36.8005ZM64.8587 43.3507V43.4401C64.8587 44.5382 65.2929 45.5469 66.1611 46.4662C67.0634 47.2664 68.0424 47.6665 69.0979 47.6665H69.2639C70.4386 47.6665 71.4899 47.1898 72.4177 46.2364C73.1412 45.3596 73.503 44.4275 73.503 43.4401V43.3507C73.503 42.1335 73.0561 41.0822 72.1623 40.1969C71.6686 39.7543 71.1621 39.4436 70.6429 39.2648C70.1492 39.1031 69.7023 39.0222 69.3022 39.0222H69.0596C68.3445 39.0222 67.6125 39.2435 66.8634 39.6862C66.608 39.8394 66.2888 40.1118 65.9058 40.5033C65.4546 41.0737 65.1737 41.5802 65.063 42.0228C64.9268 42.3888 64.8587 42.8315 64.8587 43.3507ZM84.3307 36.8132C85.6842 36.8132 86.927 37.2006 88.0591 37.9752C88.3145 38.205 88.4422 38.4944 88.4422 38.8434C88.4422 39.2265 88.2506 39.5372 87.8676 39.7755C87.6633 39.8692 87.493 39.916 87.3568 39.916C87.0929 39.916 86.778 39.7926 86.412 39.5457C85.7735 39.1967 85.0755 39.0222 84.3179 39.0222H84.2413C83.5774 39.0222 82.8879 39.218 82.1728 39.6095C81.245 40.1714 80.6023 40.9545 80.2448 41.9589C80.0916 42.4271 80.0149 42.8953 80.0149 43.3635C80.0149 44.5637 80.4831 45.6235 81.4195 46.5428C81.9983 47.0366 82.5772 47.36 83.156 47.5132C83.5646 47.6239 83.9264 47.6792 84.2413 47.6792H84.3435C85.2117 47.6792 86.0247 47.4324 86.7822 46.9387C86.978 46.8365 87.1696 46.7854 87.3568 46.7854C87.6973 46.7854 87.9995 46.9514 88.2634 47.2834C88.3826 47.4877 88.4422 47.6877 88.4422 47.8835C88.4422 48.3432 88.2081 48.6965 87.7399 48.9433C86.7014 49.5732 85.5522 49.8882 84.2924 49.8882C82.8879 49.8882 81.5642 49.4285 80.3214 48.5092C80.049 48.2964 79.7426 47.9984 79.4021 47.6154C79.0275 47.1728 78.7807 46.8237 78.6615 46.5684C78.0912 45.5554 77.806 44.4829 77.806 43.3507C77.806 41.9377 78.2486 40.6225 79.1339 39.4053C79.2871 39.1924 79.5723 38.8817 79.9894 38.4732C80.4576 38.0731 80.9002 37.7666 81.3173 37.5538C82.2963 37.0601 83.3007 36.8132 84.3307 36.8132ZM92.0684 31.6037C92.4089 31.6037 92.7068 31.7612 92.9622 32.0761C93.0984 32.2634 93.1665 32.5315 93.1665 32.8806V41.1418C93.1665 41.661 93.4261 42.0185 93.9454 42.2143C94.039 42.2399 94.1326 42.2526 94.2263 42.2526H94.3157C94.6647 42.2526 95.035 42.0058 95.4265 41.5121C98.193 38.5923 99.6103 37.1027 99.6784 37.0431C99.9253 36.8984 100.147 36.826 100.342 36.826C100.768 36.826 101.104 37.0473 101.351 37.49C101.419 37.6858 101.453 37.8347 101.453 37.9369C101.453 38.2518 101.296 38.5583 100.981 38.8562C98.6484 41.3248 97.3546 42.6953 97.0992 42.9677C96.9545 43.1549 96.8821 43.372 96.8821 43.6189V43.6827C96.8821 43.9551 97.0098 44.219 97.2652 44.4743C99.7423 46.8067 101.023 48.024 101.108 48.1261C101.253 48.356 101.326 48.5773 101.326 48.7901C101.326 49.2072 101.104 49.5392 100.662 49.786C100.466 49.8541 100.317 49.8882 100.215 49.8882C99.8487 49.8882 99.4656 49.6584 99.0655 49.1987L95.2222 45.5852C95.1201 45.5426 95.0307 45.5214 94.9541 45.5214H94.903C94.7072 45.5214 94.4689 45.7001 94.188 46.0576C93.5155 46.7301 93.1793 47.1132 93.1793 47.2068C93.1708 47.2664 93.1665 47.3175 93.1665 47.36V48.6113C93.1665 49.2412 92.9154 49.6456 92.4132 49.8243C92.2684 49.8669 92.1493 49.8882 92.0556 49.8882C91.7237 49.8882 91.4257 49.7307 91.1618 49.4157C91.0256 49.2285 90.9575 48.9603 90.9575 48.6113V32.8806C90.9575 32.2506 91.2087 31.8463 91.7109 31.6675C91.8556 31.625 91.9748 31.6037 92.0684 31.6037ZM109.868 36.8132C111.221 36.8132 112.464 37.2006 113.596 37.9752C113.851 38.205 113.979 38.4944 113.979 38.8434C113.979 39.2265 113.788 39.5372 113.405 39.7755C113.2 39.8692 113.03 39.916 112.894 39.916C112.63 39.916 112.315 39.7926 111.949 39.5457C111.311 39.1967 110.613 39.0222 109.855 39.0222H109.778C109.114 39.0222 108.425 39.218 107.71 39.6095C106.782 40.1714 106.139 40.9545 105.782 41.9589C105.629 42.4271 105.552 42.8953 105.552 43.3635C105.552 44.5637 106.02 45.6235 106.956 46.5428C107.535 47.0366 108.114 47.36 108.693 47.5132C109.102 47.6239 109.463 47.6792 109.778 47.6792H109.88C110.749 47.6792 111.562 47.4324 112.319 46.9387C112.515 46.8365 112.707 46.7854 112.894 46.7854C113.234 46.7854 113.536 46.9514 113.8 47.2834C113.92 47.4877 113.979 47.6877 113.979 47.8835C113.979 48.3432 113.745 48.6965 113.277 48.9433C112.238 49.5732 111.089 49.8882 109.829 49.8882C108.425 49.8882 107.101 49.4285 105.858 48.5092C105.586 48.2964 105.28 47.9984 104.939 47.6154C104.565 47.1728 104.318 46.8237 104.198 46.5684C103.628 45.5554 103.343 44.4829 103.343 43.3507C103.343 41.9377 103.786 40.6225 104.671 39.4053C104.824 39.1924 105.109 38.8817 105.526 38.4732C105.995 38.0731 106.437 37.7666 106.854 37.5538C107.833 37.0601 108.838 36.8132 109.868 36.8132ZM117.567 31.5782H117.656C118.04 31.5782 118.359 31.7867 118.614 32.2038C118.682 32.3826 118.716 32.523 118.716 32.6252V36.9792C118.716 37.2431 118.848 37.4219 119.112 37.5155C119.155 37.524 119.193 37.5283 119.227 37.5283H119.253C119.38 37.5283 119.648 37.4261 120.057 37.2218C120.772 36.9494 121.474 36.8132 122.164 36.8132C123.585 36.8132 124.858 37.3027 125.982 38.2816C126.509 38.8009 126.833 39.1839 126.952 39.4308C127.343 40.0267 127.603 40.6608 127.731 41.3333C127.824 41.6738 127.871 42.2186 127.871 42.9677V48.6113C127.871 49.2072 127.646 49.603 127.195 49.7988C127.033 49.8584 126.901 49.8882 126.799 49.8882H126.722C126.314 49.8882 125.99 49.6669 125.752 49.2242C125.684 49.088 125.65 48.8837 125.65 48.6113V42.5591C125.65 41.5802 125.318 40.7459 124.654 40.0564C123.939 39.3669 123.109 39.0222 122.164 39.0222C121.168 39.0222 120.3 39.4223 119.559 40.2224C118.997 40.8779 118.716 41.6568 118.716 42.5591V48.8412C118.716 49.1561 118.555 49.4413 118.231 49.6967C118.035 49.8243 117.844 49.8882 117.656 49.8882H117.567C117.21 49.8882 116.903 49.7009 116.648 49.3264C116.546 49.1646 116.495 48.9093 116.495 48.5603V32.8806C116.495 32.2762 116.716 31.8761 117.158 31.6803C117.312 31.6122 117.448 31.5782 117.567 31.5782ZM133.477 36.826H136.771C137.792 36.826 138.737 37.1835 139.606 37.8986C140.04 38.3157 140.321 38.6477 140.448 38.8945C140.891 39.6266 141.112 40.3842 141.112 41.1673V48.8156C141.112 49.1646 140.942 49.4668 140.601 49.7222C140.397 49.8329 140.206 49.8882 140.027 49.8882C139.55 49.8882 139.205 49.6626 138.993 49.2115C138.882 48.905 138.69 48.7518 138.418 48.7518C138.299 48.7518 138.043 48.8752 137.652 49.1221C137.32 49.3008 136.941 49.4583 136.516 49.5945C135.826 49.7903 135.217 49.8882 134.69 49.8882H134.524C133.383 49.8882 132.362 49.4498 131.459 48.573C131.076 48.1389 130.821 47.7814 130.693 47.5005C130.387 46.8535 130.233 46.2321 130.233 45.6363V45.4958C130.233 44.3807 130.663 43.3635 131.523 42.4442C132.442 41.627 133.43 41.2184 134.485 41.2184H138.099C138.414 41.2184 138.614 41.1375 138.699 40.9758C138.767 40.8907 138.801 40.797 138.801 40.6949V40.6438C138.776 40.3969 138.618 40.099 138.329 39.75C138.014 39.4436 137.746 39.2563 137.524 39.1882C137.311 39.0775 136.928 39.0222 136.375 39.0222H133.477C133.179 39.0222 132.906 38.8817 132.659 38.6008C132.506 38.388 132.43 38.1837 132.43 37.9879V37.8986C132.43 37.5411 132.591 37.2431 132.915 37.0048C133.111 36.8856 133.298 36.826 133.477 36.826ZM132.43 45.5597C132.43 46.147 132.676 46.679 133.17 47.1557C133.613 47.5047 134.047 47.6792 134.473 47.6792H134.69C135.413 47.6792 136.149 47.4537 136.899 47.0025C137.733 46.4747 138.329 45.7129 138.686 44.7169C138.763 44.419 138.818 44.1807 138.852 44.0019V43.9381C138.852 43.7253 138.729 43.5593 138.482 43.4401C138.422 43.4316 138.375 43.4273 138.341 43.4273H134.473C133.962 43.4273 133.472 43.6529 133.004 44.1041C132.621 44.5552 132.43 45.0404 132.43 45.5597ZM144.662 32.4209H144.738C145.241 32.4209 145.636 32.672 145.926 33.1742C146.02 33.353 146.066 33.5445 146.066 33.7488V33.8765C146.066 34.3617 145.807 34.7533 145.287 35.0512C145.1 35.1363 144.904 35.1789 144.7 35.1789C144.121 35.1789 143.696 34.8895 143.423 34.3106C143.364 34.1574 143.334 34.0127 143.334 33.8765V33.7616C143.334 33.1827 143.64 32.7614 144.253 32.4975C144.406 32.4464 144.543 32.4209 144.662 32.4209ZM144.611 36.826H144.79C145.079 36.826 145.347 36.9707 145.594 37.2601C145.73 37.473 145.798 37.673 145.798 37.8603V48.8284C145.798 49.2285 145.581 49.5519 145.147 49.7988C144.977 49.8584 144.845 49.8882 144.751 49.8882H144.649C144.292 49.8882 143.989 49.7009 143.742 49.3264C143.64 49.1646 143.589 48.9135 143.589 48.573V38.1412C143.589 37.5623 143.764 37.1793 144.113 36.992C144.275 36.8813 144.441 36.826 144.611 36.826ZM149.463 36.8132C149.829 36.8132 150.135 36.9792 150.382 37.3112C150.527 37.5411 150.71 37.656 150.931 37.656C151.025 37.656 151.225 37.5708 151.531 37.4006C152.34 37.009 153.17 36.8132 154.021 36.8132C155.707 36.8132 157.149 37.4687 158.35 38.7796C158.784 39.3329 159.073 39.7968 159.218 40.1714C159.558 40.8438 159.729 41.7291 159.729 42.8272V48.5986C159.729 49.1178 159.584 49.4668 159.295 49.6456C159.099 49.8073 158.869 49.8882 158.605 49.8882C158.324 49.8882 158.06 49.769 157.813 49.5307C157.618 49.3434 157.52 49.0327 157.52 48.5986V42.8783C157.52 42.0611 157.413 41.4525 157.2 41.0524C156.792 40.1841 156.124 39.5712 155.196 39.2137C154.787 39.086 154.404 39.0222 154.047 39.0222C153.042 39.0222 152.174 39.4138 151.442 40.1969C151.042 40.6566 150.778 41.1971 150.65 41.8185C150.599 42.0398 150.574 42.3931 150.574 42.8783V48.5986C150.574 49.1178 150.429 49.4668 150.14 49.6456C149.952 49.8073 149.722 49.8882 149.45 49.8882C149.169 49.8882 148.905 49.769 148.658 49.5307C148.463 49.3434 148.365 49.0327 148.365 48.5986V38.1029C148.365 37.6602 148.471 37.3453 148.684 37.158C148.922 36.9282 149.182 36.8132 149.463 36.8132Z" fill="white"/>
<circle cx="69.2996" cy="43.5418" r="1.15116" fill="url(#paint2_linear_494_73)"/>
<defs>
<filter id="filter0_d_494_73" x="5.51771" y="4.21875" width="47.7224" height="49.4617" filterUnits="userSpaceOnUse" color-interpolation-filters="sRGB">
<feFlood flood-opacity="0" result="BackgroundImageFix"/>
<feColorMatrix in="SourceAlpha" type="matrix" values="0 0 0 0 0 0 0 0 0 0 0 0 0 0 0 0 0 0 127 0" result="hardAlpha"/>
<feOffset dy="0.466667"/>
<feGaussianBlur stdDeviation="0.233333"/>
<feComposite in2="hardAlpha" operator="out"/>
<feColorMatrix type="matrix" values="0 0 0 0 0 0 0 0 0 0 0 0 0 0 0 0 0 0 0.25 0"/>
<feBlend mode="normal" in2="BackgroundImageFix" result="effect1_dropShadow_494_73"/>
<feBlend mode="normal" in="SourceGraphic" in2="effect1_dropShadow_494_73" result="shape"/>
</filter>
<filter id="filter1_f_494_73" x="39.0295" y="23.0495" width="10.9957" height="10.9991" filterUnits="userSpaceOnUse" color-interpolation-filters="sRGB">
<feFlood flood-opacity="0" result="BackgroundImageFix"/>
<feBlend mode="normal" in="SourceGraphic" in2="BackgroundImageFix" result="shape"/>
<feGaussianBlur stdDeviation="1.05946" result="effect1_foregroundBlur_494_73"/>
</filter>
<filter id="filter2_f_494_73" x="16.2873" y="14.6955" width="9.9644" height="9.96343" filterUnits="userSpaceOnUse" color-interpolation-filters="sRGB">
<feFlood flood-opacity="0" result="BackgroundImageFix"/>
<feBlend mode="normal" in="SourceGraphic" in2="BackgroundImageFix" result="shape"/>
<feGaussianBlur stdDeviation="1.05946" result="effect1_foregroundBlur_494_73"/>
</filter>
<filter id="filter3_f_494_73" x="15.9826" y="32.0925" width="10.0113" height="10.0079" filterUnits="userSpaceOnUse" color-interpolation-filters="sRGB">
<feFlood flood-opacity="0" result="BackgroundImageFix"/>
<feBlend mode="normal" in="SourceGraphic" in2="BackgroundImageFix" result="shape"/>
<feGaussianBlur stdDeviation="1.05946" result="effect1_foregroundBlur_494_73"/>
</filter>
<filter id="filter4_f_494_73" x="22.5061" y="22.5657" width="11.3785" height="11.3804" filterUnits="userSpaceOnUse" color-interpolation-filters="sRGB">
<feFlood flood-opacity="0" result="BackgroundImageFix"/>
<feBlend mode="normal" in="SourceGraphic" in2="BackgroundImageFix" result="shape"/>
<feGaussianBlur stdDeviation="1.05946" result="effect1_foregroundBlur_494_73"/>
</filter>
<filter id="filter5_d_494_73" x="5.51771" y="16.2219" width="37.6677" height="23.3557" filterUnits="userSpaceOnUse" color-interpolation-filters="sRGB">
<feFlood flood-opacity="0" result="BackgroundImageFix"/>
<feColorMatrix in="SourceAlpha" type="matrix" values="0 0 0 0 0 0 0 0 0 0 0 0 0 0 0 0 0 0 127 0" result="hardAlpha"/>
<feOffset dy="-0.466667"/>
<feGaussianBlur stdDeviation="0.233333"/>
<feComposite in2="hardAlpha" operator="out"/>
<feColorMatrix type="matrix" values="0 0 0 0 0 0 0 0 0 0 0 0 0 0 0 0 0 0 0.25 0"/>
<feBlend mode="normal" in2="BackgroundImageFix" result="effect1_dropShadow_494_73"/>
<feBlend mode="normal" in="SourceGraphic" in2="effect1_dropShadow_494_73" result="shape"/>
</filter>
<linearGradient id="paint0_linear_494_73" x1="24.3047" y1="27.8004" x2="30.5858" y2="27.8004" gradientUnits="userSpaceOnUse">
<stop stop-color="#3ADCFF"/>
<stop offset="1" stop-color="#1BFFE1"/>
</linearGradient>
<linearGradient id="paint1_linear_494_73" x1="68.8441" y1="31.3394" x2="68.8441" y2="38.5533" gradientUnits="userSpaceOnUse">
<stop stop-color="#3ADCFF"/>
<stop offset="1" stop-color="#1BFFE1"/>
</linearGradient>
<linearGradient id="paint2_linear_494_73" x1="69.2996" y1="42.3906" x2="69.2996" y2="44.693" gradientUnits="userSpaceOnUse">
<stop stop-color="#3ADCFF"/>
<stop offset="1" stop-color="#1BFFE1"/>
</linearGradient>
</defs>
</svg>
