<svg width="269" height="37" viewBox="0 0 269 37" fill="none" xmlns="http://www.w3.org/2000/svg">
<path d="M76.9539 6.72089L83.3187 7.65559C83.8528 7.74461 84.2979 8.10068 84.476 8.63479C84.654 9.12439 84.5205 9.70301 84.1199 10.0591L79.4909 14.6435L80.6037 21.1419C80.6927 21.676 80.4701 22.2101 80.025 22.5217C79.58 22.8777 79.0013 22.8777 78.5117 22.6552L72.8146 19.5841L67.0729 22.6552C66.6278 22.8777 66.0046 22.8777 65.6041 22.5217C65.159 22.2101 64.9364 21.676 65.0254 21.1419L66.0937 14.6435L61.4647 10.0591C61.0641 9.70301 60.9306 9.12439 61.1086 8.63479C61.2867 8.10068 61.7318 7.74461 62.2659 7.65559L68.6752 6.72089L71.5238 0.801166C71.7463 0.311565 72.2359 0 72.8146 0C73.3487 0 73.8383 0.311565 74.0608 0.801166L76.9539 6.72089Z" fill="url(#paint0_linear_503_898)"/>
<path d="M107.805 6.72089L114.17 7.65559C114.704 7.74461 115.149 8.10068 115.328 8.63479C115.506 9.12439 115.372 9.70301 114.971 10.0591L110.342 14.6435L111.455 21.1419C111.544 21.676 111.322 22.2101 110.877 22.5217C110.432 22.8777 109.853 22.8777 109.363 22.6552L103.666 19.5841L97.9244 22.6552C97.4793 22.8777 96.8562 22.8777 96.4556 22.5217C96.0105 22.2101 95.788 21.676 95.877 21.1419L96.9452 14.6435L92.3163 10.0591C91.9157 9.70301 91.7821 9.12439 91.9602 8.63479C92.1382 8.10068 92.5833 7.74461 93.1174 7.65559L99.5268 6.72089L102.375 0.801166C102.598 0.311565 103.087 0 103.666 0C104.2 0 104.69 0.311565 104.912 0.801166L107.805 6.72089Z" fill="url(#paint1_linear_503_898)"/>
<path d="M138.665 6.72089L145.03 7.65559C145.564 7.74461 146.009 8.10068 146.187 8.63479C146.365 9.12439 146.231 9.70301 145.831 10.0591L141.202 14.6435L142.315 21.1419C142.404 21.676 142.181 22.2101 141.736 22.5217C141.291 22.8777 140.712 22.8777 140.223 22.6552L134.525 19.5841L128.784 22.6552C128.339 22.8777 127.716 22.8777 127.315 22.5217C126.87 22.2101 126.647 21.676 126.736 21.1419L127.805 14.6435L123.176 10.0591C122.775 9.70301 122.642 9.12439 122.82 8.63479C122.998 8.10068 123.443 7.74461 123.977 7.65559L130.386 6.72089L133.235 0.801166C133.457 0.311565 133.947 0 134.525 0C135.06 0 135.549 0.311565 135.772 0.801166L138.665 6.72089Z" fill="url(#paint2_linear_503_898)"/>
<path d="M169.516 6.72089L175.881 7.65559C176.415 7.74461 176.86 8.10068 177.038 8.63479C177.217 9.12439 177.083 9.70301 176.682 10.0591L172.053 14.6435L173.166 21.1419C173.255 21.676 173.033 22.2101 172.588 22.5217C172.142 22.8777 171.564 22.8777 171.074 22.6552L165.377 19.5841L159.635 22.6552C159.19 22.8777 158.567 22.8777 158.167 22.5217C157.721 22.2101 157.499 21.676 157.588 21.1419L158.656 14.6435L154.027 10.0591C153.627 9.70301 153.493 9.12439 153.671 8.63479C153.849 8.10068 154.294 7.74461 154.828 7.65559L161.238 6.72089L164.086 0.801166C164.309 0.311565 164.798 0 165.377 0C165.911 0 166.401 0.311565 166.623 0.801166L169.516 6.72089Z" fill="url(#paint3_linear_503_898)"/>
<path d="M200.368 6.72089L206.733 7.65559C207.267 7.74461 207.712 8.10068 207.89 8.63479C208.068 9.12439 207.935 9.70301 207.534 10.0591L202.905 14.6435L204.018 21.1419C204.107 21.676 203.884 22.2101 203.439 22.5217C202.994 22.8777 202.415 22.8777 201.926 22.6552L196.229 19.5841L190.487 22.6552C190.042 22.8777 189.419 22.8777 189.018 22.5217C188.573 22.2101 188.35 21.676 188.439 21.1419L189.508 14.6435L184.879 10.0591C184.478 9.70301 184.345 9.12439 184.523 8.63479C184.701 8.10068 185.146 7.74461 185.68 7.65559L192.089 6.72089L194.938 0.801166C195.16 0.311565 195.65 0 196.229 0C196.763 0 197.252 0.311565 197.475 0.801166L200.368 6.72089Z" fill="url(#paint4_linear_503_898)"/>
<defs>
<linearGradient id="paint0_linear_503_898" x1="63.0258" y1="1.48254" x2="94.434" y2="2.29089" gradientUnits="userSpaceOnUse">
<stop stop-color="#FFAE34"/>
<stop offset="0.500947" stop-color="#FF6B34"/>
<stop offset="1" stop-color="#FF0083"/>
</linearGradient>
<linearGradient id="paint1_linear_503_898" x1="93.8774" y1="1.48254" x2="125.286" y2="2.29089" gradientUnits="userSpaceOnUse">
<stop stop-color="#FFAE34"/>
<stop offset="0.500947" stop-color="#FF6B34"/>
<stop offset="1" stop-color="#FF0083"/>
</linearGradient>
<linearGradient id="paint2_linear_503_898" x1="124.737" y1="1.48254" x2="156.145" y2="2.29089" gradientUnits="userSpaceOnUse">
<stop stop-color="#FFAE34"/>
<stop offset="0.500947" stop-color="#FF6B34"/>
<stop offset="1" stop-color="#FF0083"/>
</linearGradient>
<linearGradient id="paint3_linear_503_898" x1="155.588" y1="1.48254" x2="186.997" y2="2.29089" gradientUnits="userSpaceOnUse">
<stop stop-color="#FFAE34"/>
<stop offset="0.500947" stop-color="#FF6B34"/>
<stop offset="1" stop-color="#FF0083"/>
</linearGradient>
<linearGradient id="paint4_linear_503_898" x1="186.44" y1="1.48254" x2="217.848" y2="2.29089" gradientUnits="userSpaceOnUse">
<stop stop-color="#FFAE34"/>
<stop offset="0.500947" stop-color="#FF6B34"/>
<stop offset="1" stop-color="#FF0083"/>
</linearGradient>
</defs>
</svg>
