<svg width="26" height="26" viewBox="0 0 26 26" fill="none" xmlns="http://www.w3.org/2000/svg">
<path d="M12.7253 15.9865C12.6963 16.471 12.0683 16.6393 11.8008 16.2342L10.2321 13.8564C9.88698 13.3338 9.42491 12.8988 8.88248 12.5857C8.34006 12.2727 7.7322 12.0904 7.10708 12.0531L4.26511 11.8829C3.78067 11.8538 3.61237 11.2257 4.01737 10.9583L6.39482 9.38953C6.91737 9.04442 7.35237 8.58233 7.66531 8.03987C7.97826 7.49742 8.16057 6.88951 8.19778 6.26433L8.36784 3.4221C8.37371 3.31614 8.41288 3.21474 8.47978 3.13237C8.54667 3.05001 8.63787 2.99087 8.74036 2.96341C8.84286 2.93594 8.95141 2.94156 9.05053 2.97944C9.14964 3.01733 9.23427 3.08555 9.29232 3.17438L10.8611 5.55215C11.206 6.07466 11.6678 6.50968 12.21 6.82275C12.7522 7.13581 13.3598 7.31832 13.9847 7.35582L16.828 7.52569C16.934 7.53156 17.0354 7.57075 17.1177 7.63765C17.2001 7.70456 17.2592 7.79577 17.2867 7.89828C17.3142 8.00078 17.3086 8.10934 17.2707 8.20847C17.2328 8.30759 17.1646 8.39222 17.0758 8.45028L14.6983 10.0191C14.1759 10.364 13.7409 10.8258 13.4279 11.3681C13.1149 11.9103 12.9325 12.5179 12.895 13.1429L12.7253 15.9865ZM19.7727 21.4639C19.769 21.5275 19.7454 21.5883 19.7052 21.6376C19.665 21.687 19.6103 21.7224 19.5488 21.7389C19.4873 21.7553 19.4222 21.752 19.3628 21.7294C19.3033 21.7067 19.2524 21.6659 19.2175 21.6127L18.2763 20.1863C17.8561 19.5506 17.1623 19.1501 16.4018 19.1039L14.696 19.0019C14.6325 18.9982 14.5717 18.9746 14.5224 18.9344C14.473 18.8942 14.4376 18.8395 14.4211 18.778C14.4047 18.7165 14.408 18.6514 14.4306 18.5919C14.4533 18.5324 14.4941 18.4816 14.5473 18.4466L15.9735 17.5055C16.287 17.2985 16.548 17.0213 16.7359 16.6959C16.9237 16.3705 17.0332 16.0059 17.0556 15.6308L17.1575 13.9249C17.1612 13.8614 17.1848 13.8006 17.225 13.7513C17.2652 13.7019 17.3199 13.6665 17.3814 13.65C17.4429 13.6335 17.508 13.6368 17.5675 13.6595C17.627 13.6821 17.6778 13.723 17.7128 13.7761L18.6539 15.2025C18.8609 15.5161 19.1381 15.7772 19.4634 15.9651C19.7888 16.153 20.1535 16.2625 20.5285 16.2849L22.2342 16.3869C22.2977 16.3906 22.3585 16.4142 22.4079 16.4544C22.4572 16.4946 22.4926 16.5494 22.5091 16.6109C22.5256 16.6723 22.5223 16.7374 22.4996 16.7969C22.477 16.8564 22.4362 16.9073 22.383 16.9422L20.9568 17.8834C20.6432 18.0904 20.3822 18.3676 20.1944 18.6929C20.0065 19.0183 19.897 19.383 19.8746 19.7581L19.7727 21.4639ZM10.6251 25.4304C10.622 25.4723 10.606 25.5123 10.5793 25.5447C10.5525 25.5771 10.5163 25.6004 10.4757 25.6113C10.435 25.6222 10.392 25.6201 10.3526 25.6054C10.3132 25.5907 10.2794 25.5641 10.2558 25.5293L9.6286 24.5793C9.34867 24.1545 8.88559 23.8871 8.37777 23.857L7.24153 23.7888C7.19959 23.7858 7.15963 23.7698 7.12722 23.743C7.0948 23.7162 7.07153 23.68 7.06065 23.6394C7.04977 23.5988 7.05181 23.5558 7.06649 23.5164C7.08117 23.477 7.10777 23.4431 7.14257 23.4195L8.09247 22.7923C8.30178 22.6543 8.47602 22.4693 8.60137 22.2522C8.72672 22.0351 8.79973 21.7917 8.81459 21.5414L8.88276 20.405C8.88578 20.3631 8.90179 20.3231 8.92857 20.2907C8.95535 20.2583 8.99156 20.235 9.03218 20.2241C9.07279 20.2133 9.11578 20.2153 9.15518 20.23C9.19458 20.2447 9.22843 20.2713 9.25202 20.3061L9.87923 21.2561C10.0172 21.4654 10.2022 21.6397 10.4193 21.7651C10.6364 21.8905 10.8798 21.9635 11.1301 21.9784L12.265 22.047C12.3069 22.05 12.3468 22.066 12.3793 22.0928C12.4117 22.1196 12.4349 22.1558 12.4458 22.1964C12.4567 22.237 12.4547 22.28 12.44 22.3194C12.4253 22.3588 12.3987 22.3927 12.3639 22.4163L11.414 23.0435C10.9893 23.3234 10.7219 23.7865 10.6919 24.2944L10.6251 25.4304Z" fill="url(#paint0_linear_1202_1033)"/>
<defs>
<linearGradient id="paint0_linear_1202_1033" x1="15.8664" y1="24.1668" x2="10.0882" y2="2.60226" gradientUnits="userSpaceOnUse">
<stop stop-color="#3ADCFF"/>
<stop offset="1" stop-color="#1BFFE1"/>
</linearGradient>
</defs>
</svg>
